<svg width="150" height="150" viewBox="0 0 150 150" fill="none" xmlns="http://www.w3.org/2000/svg">
<mask id="mask0_2_98" style="mask-type:alpha" maskUnits="userSpaceOnUse" x="0" y="0" width="150" height="150">
<circle cx="75" cy="75" r="75" fill="#EA4141"/>
</mask>
<g mask="url(#mask0_2_98)">
<circle opacity="0.4" cx="74.5002" cy="74.5" r="53.5" fill="#EA4141"/>
<path d="M65.5605 14.8133L59.5382 12.1519L65.5605 14.8133ZM55.7192 37.0824L52.6187 35.7122L55.7192 37.0824Z" stroke="url(#paint0_angular_2_98)" stroke-width="90"/>
<mask id="path-4-inside-1_2_98" fill="white">
<path d="M82.2435 134.061C81.6962 135.299 82.512 136.712 83.8583 136.858L108.065 139.469C109.692 139.645 110.83 137.898 110.011 136.481L95.6462 111.6C94.8278 110.183 92.7464 110.295 92.0848 111.792L82.2435 134.061Z"/>
<path d="M43.101 20.5893C57.7045 12.1579 75.0593 9.87308 91.3475 14.2375C107.636 18.6019 121.523 29.258 129.954 43.8615C138.386 58.4651 140.67 75.8199 136.306 92.1081C131.942 108.396 121.286 122.284 106.682 130.715L99.5207 118.311C110.835 111.779 119.09 101.02 122.472 88.4011C125.853 75.7821 124.083 62.3367 117.551 51.0228C111.019 39.7089 100.26 31.4533 87.6405 28.072C75.0215 24.6908 61.5761 26.4609 50.2622 32.993L43.101 20.5893Z"/>
</mask>
<path d="M95.6462 111.6L173.588 66.6001L173.588 66.6001L95.6462 111.6ZM92.0848 111.792L9.76495 75.4125L9.76495 75.4125L92.0848 111.792ZM108.065 139.469L98.4099 228.95L98.4099 228.95L108.065 139.469ZM110.011 136.481L32.0689 181.481H32.0689L110.011 136.481ZM83.8583 136.858L93.513 47.3771L83.8583 136.858ZM82.2435 134.061L164.563 170.44L82.2435 134.061ZM43.101 20.5893L-1.89905 -57.353L-79.8413 -12.353L-34.8413 65.5893L43.101 20.5893ZM106.682 130.715L28.7397 175.715L73.7398 253.657L151.682 208.657L106.682 130.715ZM99.5207 118.311L54.5207 40.3689L-23.4215 85.3689L21.5785 163.311L99.5207 118.311ZM50.2622 32.993L-27.68 77.993L17.32 155.935L95.2622 110.935L50.2622 32.993ZM74.2037 226.338L98.4099 228.95L117.719 49.9888L93.513 47.3771L74.2037 226.338ZM187.953 91.481L173.588 66.6001L17.7039 156.6L32.0689 181.481L187.953 91.481ZM9.76495 75.4125L-0.0763203 97.6817L164.563 170.44L174.405 148.171L9.76495 75.4125ZM173.588 66.6001C135.945 1.3999 40.1968 6.55039 9.76495 75.4125L174.405 148.171C145.296 214.039 53.7106 218.966 17.7039 156.6L173.588 66.6001ZM98.4099 228.95C173.262 237.026 225.597 156.681 187.953 91.481L32.0689 181.481C-3.93771 119.116 46.1212 42.2636 117.719 49.9888L98.4099 228.95ZM93.513 47.3771C152.749 53.7685 188.647 115.944 164.563 170.44L-0.0763203 97.6817C-25.2543 154.655 12.2747 219.656 74.2037 226.338L93.513 47.3771ZM88.101 98.5315C82.0329 102.035 74.8218 102.984 68.0538 101.171L114.641 -72.6958C75.2969 -83.2381 33.3761 -77.7191 -1.89905 -57.353L88.101 98.5315ZM68.0538 101.171C61.2858 99.3573 55.5154 94.9296 52.012 88.8615L207.897 -1.13846C187.53 -36.4136 153.986 -62.1536 114.641 -72.6958L68.0538 101.171ZM52.012 88.8615C48.5087 82.7935 47.5593 75.5823 49.3728 68.8144L223.239 115.402C233.782 76.0575 228.263 34.1367 207.897 -1.13846L52.012 88.8615ZM49.3728 68.8144C51.1862 62.0464 55.614 56.276 61.682 52.7726L151.682 208.657C186.957 188.291 212.697 154.746 223.239 115.402L49.3728 68.8144ZM184.624 85.7149L177.463 73.3112L21.5785 163.311L28.7397 175.715L184.624 85.7149ZM144.521 196.253C176.506 177.787 199.846 147.37 209.405 111.695L35.5382 65.1074C38.3348 54.6703 45.163 45.7716 54.5207 40.3689L144.521 196.253ZM209.405 111.695C218.964 76.0197 213.96 38.0083 195.493 6.02282L39.6083 96.0228C34.2057 86.6651 32.7416 75.5445 35.5382 65.1074L209.405 111.695ZM195.493 6.02282C177.026 -25.9627 146.609 -49.3022 110.934 -58.8613L64.3468 115.005C53.9097 112.209 45.011 105.381 39.6083 96.0228L195.493 6.02282ZM110.934 -58.8613C75.2591 -68.4204 37.2477 -63.4161 5.26224 -44.9493L95.2622 110.935C85.9046 116.338 74.7839 117.802 64.3468 115.005L110.934 -58.8613ZM128.205 -12.007L121.043 -24.4107L-34.8413 65.5893L-27.68 77.993L128.205 -12.007Z" fill="url(#paint1_angular_2_98)" mask="url(#path-4-inside-1_2_98)"/>
</g>
<path d="M48.4209 79.9121C48.4209 78.8607 48.0498 78.0566 47.3076 77.5C46.5654 76.931 45.2295 76.3372 43.2998 75.7188C41.3701 75.0879 39.8424 74.4694 38.7168 73.8633C35.6491 72.2057 34.1152 69.973 34.1152 67.165C34.1152 65.7054 34.5234 64.4066 35.3398 63.2686C36.1686 62.1182 37.3499 61.2214 38.8838 60.5781C40.43 59.9349 42.1618 59.6133 44.0791 59.6133C46.0088 59.6133 47.7282 59.9658 49.2373 60.6709C50.7464 61.3636 51.9154 62.347 52.7441 63.6211C53.5853 64.8952 54.0059 66.3424 54.0059 67.9629H48.4395C48.4395 66.7259 48.0498 65.7673 47.2705 65.0869C46.4912 64.3942 45.3965 64.0479 43.9863 64.0479C42.6257 64.0479 41.568 64.3385 40.8135 64.9199C40.0589 65.4889 39.6816 66.2435 39.6816 67.1836C39.6816 68.0618 40.1208 68.7979 40.999 69.3916C41.8896 69.9854 43.1947 70.542 44.9141 71.0615C48.0807 72.014 50.3877 73.1953 51.835 74.6055C53.2822 76.0156 54.0059 77.7721 54.0059 79.875C54.0059 82.2129 53.1214 84.0498 51.3525 85.3857C49.5837 86.7093 47.2025 87.3711 44.209 87.3711C42.1309 87.3711 40.2383 86.9938 38.5312 86.2393C36.8242 85.4723 35.5192 84.4271 34.6162 83.1035C33.7256 81.7799 33.2803 80.2461 33.2803 78.502H38.8652C38.8652 81.4831 40.6465 82.9736 44.209 82.9736C45.5326 82.9736 46.5654 82.7077 47.3076 82.1758C48.0498 81.6315 48.4209 80.877 48.4209 79.9121ZM63.3574 77.4814V87H57.791V59.9844H68.3301C70.3587 59.9844 72.14 60.3555 73.6738 61.0977C75.2201 61.8398 76.4076 62.8975 77.2363 64.2705C78.0651 65.6312 78.4795 67.1836 78.4795 68.9277C78.4795 71.5749 77.5703 73.6654 75.752 75.1992C73.946 76.7207 71.4411 77.4814 68.2373 77.4814H63.3574ZM63.3574 72.9727H68.3301C69.8021 72.9727 70.9215 72.6263 71.6885 71.9336C72.4678 71.2409 72.8574 70.2513 72.8574 68.9648C72.8574 67.6413 72.4678 66.5713 71.6885 65.7549C70.9092 64.9385 69.833 64.5179 68.46 64.4932H63.3574V72.9727ZM88.2393 87H82.6729V59.9844H88.2393V87ZM115.385 87H109.818L98.9824 69.2246V87H93.416V59.9844H98.9824L109.837 77.7969V59.9844H115.385V87Z" fill="white"/>
<defs>
<radialGradient id="paint0_angular_2_98" cx="0" cy="0" r="1" gradientUnits="userSpaceOnUse" gradientTransform="translate(74.7414 74.0305) rotate(60) scale(57.6574 56.9477)">
<stop offset="0.5" stop-color="white"/>
<stop offset="1" stop-color="white" stop-opacity="0"/>
</radialGradient>
<radialGradient id="paint1_angular_2_98" cx="0" cy="0" r="1" gradientUnits="userSpaceOnUse" gradientTransform="translate(74.8916 75.6521) rotate(-120) scale(57.6574 56.9477)">
<stop offset="0.5" stop-color="white"/>
<stop offset="1" stop-color="white" stop-opacity="0"/>
</radialGradient>
</defs>
</svg>
